<svg width="375" height="70" viewBox="0 0 375 70" fill="none" xmlns="http://www.w3.org/2000/svg">
<path fill-rule="evenodd" clip-rule="evenodd" d="M4.93287 59.6901C-0.442816 53.0395 -0.628784 43.848 0.668693 33.502C1.95075 23.1312 4.74686 11.5894 13.3129 5.43345C21.9095 -0.73886 36.3067 -1.54173 47.1325 2.46192C57.9888 6.44923 65.2889 15.202 68.3768 25.3806C71.4492 35.5345 70.3401 47.0978 63.4998 55.5609C56.6441 63.9992 44.0267 69.3536 32.4351 69.9431C20.8896 70.5409 10.2934 66.3818 4.93287 59.6901ZM32.6524 45.1584V52H36.9142V45.1582C38.9562 45.012 40.7501 44.6506 42.2957 44.0741C44.3664 43.2899 46.0399 42.2205 47.316 40.8659C48.5922 39.5113 49.5252 37.9725 50.1151 36.2495C50.705 34.5266 51 32.7205 51 30.8311C51 28.1932 50.4462 25.8346 49.3386 23.7552C48.243 21.6639 46.7622 20.0181 44.8962 18.818C43.0421 17.606 40.9834 17 38.7201 17H32.6524V22.6323L32.6524 41.1935C30.8892 40.9837 29.3903 40.4943 28.1558 39.7251C26.4703 38.6676 25.2302 37.2952 24.4357 35.6079C23.6531 33.9206 23.2618 32.1382 23.2618 30.2608C23.31 28.8111 23.5087 27.4862 23.8578 26.2861C24.219 25.086 24.7246 23.9869 25.3747 22.9887C26.0369 21.9906 26.8495 21.0638 27.8126 20.2083L25.2844 17C23.8879 17.9506 22.7201 19.1032 21.781 20.4578C20.854 21.8005 20.1558 23.3036 19.6862 24.9672C19.2287 26.6188 19 28.3834 19 30.2608C19 32.2927 19.2769 34.2117 19.8307 36.0178C20.3965 37.824 21.2995 39.4162 22.5395 40.7946C23.7795 42.1729 25.3988 43.2602 27.3973 44.0563C28.9026 44.6435 30.6543 45.0108 32.6524 45.1584ZM36.9142 41.1977C38.7413 40.9952 40.2944 40.5222 41.5734 39.7786C43.3431 38.7567 44.6433 37.4437 45.474 35.8396C46.3168 34.2355 46.7382 32.566 46.7382 30.8311C46.69 29.025 46.3409 27.3615 45.6907 25.8405C45.0406 24.3077 44.1257 23.0838 42.9458 22.1689C41.766 21.242 40.3574 20.7786 38.7201 20.7786H36.9142V22.4897L36.9142 41.1977Z" fill="white"/>
<path d="M117.256 34.5455C117.256 38.1818 116.608 41.3466 115.312 44.0398C114.017 46.7216 112.233 48.8011 109.96 50.2784C107.699 51.7443 105.097 52.4773 102.153 52.4773C99.2102 52.4773 96.6023 51.7443 94.3295 50.2784C92.0682 48.8011 90.2898 46.7216 88.9943 44.0398C87.7102 41.3466 87.0682 38.1818 87.0682 34.5455C87.0682 30.9091 87.7102 27.75 88.9943 25.0682C90.2898 22.375 92.0739 20.2955 94.3466 18.8295C96.6193 17.3523 99.2216 16.6136 102.153 16.6136C105.097 16.6136 107.699 17.3523 109.96 18.8295C112.233 20.2955 114.017 22.375 115.312 25.0682C116.608 27.75 117.256 30.9091 117.256 34.5455ZM114.153 34.5455C114.153 31.4205 113.631 28.7443 112.585 26.517C111.54 24.2784 110.114 22.5682 108.307 21.3864C106.5 20.2045 104.449 19.6136 102.153 19.6136C99.8693 19.6136 97.8239 20.2045 96.017 21.3864C94.2102 22.5682 92.7784 24.2727 91.7216 26.5C90.6761 28.7273 90.1534 31.4091 90.1534 34.5455C90.1534 37.6705 90.6761 40.3466 91.7216 42.5739C92.767 44.8011 94.1932 46.5114 96 47.7045C97.8068 48.8864 99.858 49.4773 102.153 49.4773C104.449 49.4773 106.5 48.8864 108.307 47.7045C110.125 46.5227 111.557 44.8182 112.602 42.5909C113.648 40.3523 114.165 37.6705 114.153 34.5455ZM121.934 61.8182V25.8182H124.883V30.8125H125.241C125.604 30.0284 126.104 29.2273 126.741 28.4091C127.377 27.5795 128.218 26.8807 129.263 26.3125C130.32 25.7443 131.65 25.4602 133.252 25.4602C135.411 25.4602 137.297 26.0284 138.911 27.1648C140.536 28.2898 141.797 29.8693 142.695 31.9034C143.604 33.9261 144.059 36.2841 144.059 38.9773C144.059 41.6818 143.604 44.0511 142.695 46.0852C141.797 48.1193 140.536 49.7045 138.911 50.8409C137.297 51.9773 135.422 52.5455 133.286 52.5455C131.707 52.5455 130.383 52.2614 129.314 51.6932C128.258 51.125 127.4 50.4261 126.741 49.5966C126.093 48.7557 125.593 47.9375 125.241 47.142H124.968V61.8182H121.934ZM124.934 38.9261C124.934 41.0398 125.246 42.9148 125.871 44.5511C126.508 46.1761 127.417 47.4545 128.599 48.3864C129.792 49.3068 131.235 49.767 132.928 49.767C134.667 49.767 136.133 49.2898 137.326 48.3352C138.53 47.3693 139.445 46.0682 140.07 44.4318C140.707 42.7955 141.025 40.9602 141.025 38.9261C141.025 36.9148 140.712 35.1023 140.087 33.4886C139.474 31.875 138.564 30.5966 137.36 29.6534C136.155 28.6989 134.678 28.2216 132.928 28.2216C131.224 28.2216 129.775 28.6818 128.582 29.6023C127.388 30.5114 126.479 31.7727 125.854 33.3864C125.241 34.9886 124.934 36.8352 124.934 38.9261ZM158.9 52.5455C156.457 52.5455 154.343 51.9773 152.559 50.8409C150.775 49.6932 149.395 48.108 148.417 46.0852C147.451 44.0511 146.968 41.7102 146.968 39.0625C146.968 36.4261 147.451 34.0852 148.417 32.0398C149.395 29.983 150.741 28.375 152.457 27.2159C154.184 26.0455 156.179 25.4602 158.44 25.4602C159.861 25.4602 161.23 25.7216 162.548 26.2443C163.866 26.7557 165.048 27.5455 166.093 28.6136C167.15 29.6705 167.986 31.0057 168.599 32.6193C169.213 34.2216 169.52 36.1193 169.52 38.3125V39.8125H149.065V37.1364H166.417C166.417 35.4545 166.076 33.9432 165.395 32.6023C164.724 31.25 163.787 30.1818 162.582 29.3977C161.389 28.6136 160.008 28.2216 158.44 28.2216C156.781 28.2216 155.321 28.6648 154.059 29.5511C152.798 30.4375 151.809 31.608 151.093 33.0625C150.389 34.517 150.031 36.108 150.02 37.8352V39.4375C150.02 41.517 150.378 43.3352 151.093 44.892C151.821 46.4375 152.849 47.6364 154.179 48.4886C155.508 49.3409 157.082 49.767 158.9 49.767C160.139 49.767 161.224 49.5739 162.156 49.1875C163.099 48.8011 163.889 48.2841 164.525 47.6364C165.173 46.9773 165.662 46.2557 165.991 45.4716L168.872 46.4091C168.474 47.5114 167.821 48.5284 166.912 49.4602C166.014 50.392 164.889 51.142 163.537 51.7102C162.196 52.267 160.65 52.5455 158.9 52.5455ZM176.84 35.6364V52H173.806V25.8182H176.755V29.9261H177.027C177.641 28.5852 178.595 27.5114 179.891 26.7045C181.198 25.8864 182.811 25.4773 184.732 25.4773C186.493 25.4773 188.039 25.8466 189.368 26.5852C190.709 27.3125 191.749 28.3864 192.488 29.8068C193.238 31.2273 193.613 32.9716 193.613 35.0398V52H190.578V35.2273C190.578 33.0795 189.976 31.3807 188.772 30.1307C187.578 28.8807 185.976 28.2557 183.965 28.2557C182.59 28.2557 181.368 28.5511 180.3 29.142C179.232 29.733 178.385 30.5852 177.76 31.6989C177.147 32.8011 176.84 34.1136 176.84 35.6364ZM210.061 52H199.833V17.0909H210.674C214.004 17.0909 216.85 17.7841 219.214 19.1705C221.589 20.5568 223.407 22.5455 224.668 25.1364C225.93 27.7273 226.561 30.8352 226.561 34.4602C226.561 38.1193 225.913 41.2614 224.617 43.8864C223.333 46.5 221.458 48.5057 218.992 49.9034C216.538 51.3011 213.561 52 210.061 52ZM203.021 49.1364H209.873C212.873 49.1364 215.384 48.5455 217.407 47.3636C219.43 46.1818 220.947 44.4943 221.958 42.3011C222.97 40.108 223.475 37.4943 223.475 34.4602C223.464 31.4489 222.964 28.858 221.975 26.6875C220.998 24.517 219.543 22.8523 217.612 21.6932C215.691 20.5341 213.316 19.9545 210.487 19.9545H203.021V49.1364ZM231.29 52V25.8182H234.341V52H231.29ZM232.841 21.3182C232.216 21.3182 231.682 21.108 231.239 20.6875C230.795 20.2557 230.574 19.7386 230.574 19.1364C230.574 18.5341 230.795 18.0227 231.239 17.6023C231.682 17.1705 232.216 16.9545 232.841 16.9545C233.466 16.9545 234 17.1705 234.443 17.6023C234.886 18.0227 235.108 18.5341 235.108 19.1364C235.108 19.7386 234.886 20.2557 234.443 20.6875C234 21.108 233.466 21.3182 232.841 21.3182ZM250.738 25.8182V28.4602H237.868V25.8182H250.738ZM241.891 52V21.983C241.891 20.5739 242.215 19.3864 242.863 18.4205C243.522 17.4545 244.38 16.7216 245.437 16.2216C246.493 15.7216 247.613 15.4716 248.795 15.4716C249.59 15.4716 250.249 15.5398 250.772 15.6761C251.306 15.8011 251.726 15.9261 252.033 16.0511L251.147 18.7102C250.92 18.642 250.641 18.5625 250.312 18.4716C249.982 18.3807 249.567 18.3352 249.067 18.3352C247.749 18.3352 246.732 18.7045 246.016 19.4432C245.3 20.1818 244.942 21.2386 244.942 22.6136L244.925 52H241.891ZM265.166 25.8182V28.4602H252.297V25.8182H265.166ZM256.319 52V21.983C256.319 20.5739 256.643 19.3864 257.291 18.4205C257.95 17.4545 258.808 16.7216 259.865 16.2216C260.922 15.7216 262.041 15.4716 263.223 15.4716C264.018 15.4716 264.677 15.5398 265.2 15.6761C265.734 15.8011 266.155 15.9261 266.461 16.0511L265.575 18.7102C265.348 18.642 265.069 18.5625 264.74 18.4716C264.41 18.3807 263.995 18.3352 263.495 18.3352C262.177 18.3352 261.16 18.7045 260.444 19.4432C259.728 20.1818 259.37 21.2386 259.37 22.6136L259.353 52H256.319ZM285.458 41.9943V25.8182H288.492V52H285.458V47.6534H285.219C284.605 48.9943 283.634 50.1136 282.304 51.0114C280.975 51.8977 279.35 52.3409 277.429 52.3409C275.759 52.3409 274.276 51.9773 272.98 51.25C271.685 50.5114 270.668 49.4318 269.929 48.0114C269.191 46.5909 268.821 44.8466 268.821 42.7784V25.8182H271.855V42.5909C271.855 44.6364 272.458 46.2841 273.662 47.5341C274.867 48.7727 276.412 49.392 278.299 49.392C279.48 49.392 280.617 49.108 281.708 48.5398C282.799 47.9716 283.696 47.142 284.401 46.0511C285.105 44.9489 285.458 43.5966 285.458 41.9943ZM311.715 31.5625L308.937 32.3466C308.664 31.5625 308.278 30.8523 307.778 30.2159C307.278 29.5795 306.624 29.0739 305.818 28.6989C305.022 28.3239 304.034 28.1364 302.852 28.1364C301.079 28.1364 299.624 28.5568 298.488 29.3977C297.352 30.2386 296.784 31.3239 296.784 32.6534C296.784 33.7784 297.17 34.6932 297.943 35.3977C298.727 36.0909 299.931 36.642 301.556 37.0511L305.511 38.0227C307.704 38.5568 309.346 39.4034 310.437 40.5625C311.539 41.7216 312.09 43.1761 312.09 44.9261C312.09 46.4034 311.681 47.7159 310.863 48.8636C310.045 50.0114 308.903 50.9148 307.437 51.5739C305.982 52.2216 304.295 52.5455 302.374 52.5455C299.818 52.5455 297.71 51.9716 296.051 50.8239C294.391 49.6648 293.329 47.9943 292.863 45.8125L295.778 45.0966C296.153 46.6534 296.886 47.8295 297.977 48.625C299.079 49.4205 300.528 49.8182 302.323 49.8182C304.335 49.8182 305.943 49.3693 307.147 48.4716C308.352 47.5625 308.954 46.4261 308.954 45.0625C308.954 44.0057 308.602 43.1193 307.897 42.4034C307.193 41.6761 306.124 41.142 304.693 40.8011L300.414 39.7784C298.141 39.233 296.46 38.3693 295.369 37.1875C294.278 36.0057 293.732 34.5398 293.732 32.7898C293.732 31.3466 294.124 30.0795 294.909 28.9886C295.693 27.8864 296.772 27.0227 298.147 26.3977C299.522 25.7727 301.09 25.4602 302.852 25.4602C305.249 25.4602 307.164 26.0057 308.596 27.0966C310.039 28.1761 311.079 29.6648 311.715 31.5625ZM316.368 52V25.8182H319.419V52H316.368ZM317.919 21.3182C317.294 21.3182 316.76 21.108 316.317 20.6875C315.874 20.2557 315.652 19.7386 315.652 19.1364C315.652 18.5341 315.874 18.0227 316.317 17.6023C316.76 17.1705 317.294 16.9545 317.919 16.9545C318.544 16.9545 319.078 17.1705 319.521 17.6023C319.964 18.0227 320.186 18.5341 320.186 19.1364C320.186 19.7386 319.964 20.2557 319.521 20.6875C319.078 21.108 318.544 21.3182 317.919 21.3182ZM335.219 52.5455C332.958 52.5455 330.958 51.9716 329.219 50.8239C327.492 49.6761 326.14 48.0909 325.163 46.0682C324.185 44.0341 323.697 41.6875 323.697 39.0284C323.697 36.3466 324.185 33.9886 325.163 31.9545C326.14 29.9091 327.492 28.3182 329.219 27.1818C330.958 26.0341 332.958 25.4602 335.219 25.4602C337.481 25.4602 339.475 26.0341 341.202 27.1818C342.93 28.3295 344.282 29.9205 345.259 31.9545C346.248 33.9886 346.742 36.3466 346.742 39.0284C346.742 41.6875 346.253 44.0341 345.276 46.0682C344.299 48.0909 342.941 49.6761 341.202 50.8239C339.475 51.9716 337.481 52.5455 335.219 52.5455ZM335.219 49.767C337.038 49.767 338.577 49.2784 339.839 48.3011C341.1 47.3239 342.055 46.0227 342.702 44.3977C343.361 42.7727 343.691 40.983 343.691 39.0284C343.691 37.0739 343.361 35.2784 342.702 33.642C342.055 32.0057 341.1 30.6932 339.839 29.7045C338.577 28.7159 337.038 28.2216 335.219 28.2216C333.413 28.2216 331.873 28.7159 330.6 29.7045C329.339 30.6932 328.378 32.0057 327.719 33.642C327.072 35.2784 326.748 37.0739 326.748 39.0284C326.748 40.983 327.072 42.7727 327.719 44.3977C328.378 46.0227 329.339 47.3239 330.6 48.3011C331.861 49.2784 333.401 49.767 335.219 49.767ZM354.037 35.6364V52H351.003V25.8182H353.951V29.9261H354.224C354.838 28.5852 355.792 27.5114 357.088 26.7045C358.395 25.8864 360.008 25.4773 361.929 25.4773C363.69 25.4773 365.236 25.8466 366.565 26.5852C367.906 27.3125 368.946 28.3864 369.684 29.8068C370.434 31.2273 370.809 32.9716 370.809 35.0398V52H367.775V35.2273C367.775 33.0795 367.173 31.3807 365.968 30.1307C364.775 28.8807 363.173 28.2557 361.162 28.2557C359.787 28.2557 358.565 28.5511 357.497 29.142C356.429 29.733 355.582 30.5852 354.957 31.6989C354.343 32.8011 354.037 34.1136 354.037 35.6364Z" fill="white"/>
</svg>
